<svg id="Layer_1" data-name="Layer 1" xmlns="http://www.w3.org/2000/svg" viewBox="0 0 1969.05 1121.05"><defs><style>.cls-1{fill:#fff;}.cls-2{fill:#ff7bac;}.cls-3{fill:#db5252;}</style></defs><rect class="cls-1" x="49.05" y="41.05" width="1920" height="1080"/><path class="cls-2" d="M788.66,256.18C1029.52,456.53,926,941.58,907.08,942.36c-21.33.88,59.72-615.49-238-783.26C479.1,52,214.85,172.83,217,190,219.48,209.9,580.37,82.92,788.66,256.18Z"/><path class="cls-3" d="M780,696.85c391.19-136.26,517-690.52,505.06-696.8-12.93-6.82-191.29,632-630.59,732.3C320.62,808.56-4.42,537.3.05,527.05,5,515.72,412.26,824.94,780,696.85Z"/><path class="cls-3" d="M1423.05,1092.05c-229.72,44.72-515.36-485.55-494.5-502.5,22.91-18.61,410.84,586.19,640.5,502.5,181.3-66.06,176.34-529.29,144.5-536.5C1680,548,1634,1051,1423.05,1092.05Z"/><path class="cls-2" d="M1364.13,571.73c129.31-34.58,242.85,103,236.1,108.63-7.24,6-153.58-138.55-283.35-88.86-63.79,24.43-101.17,87.24-98.86,88.42C1220.79,681.33,1279.91,594.26,1364.13,571.73Z"/></svg>